# Exported from Figuro at https://www.figuro.io

mtllib newscene.mtl
o new
v 18.937980937028275 -86.21571869231786 -86.79328224227838
v 86.73509235566956 -86.21571869231786 19.202726848354512
v 86.73509235566956 86.21571869231786 19.202726848354512
v 18.937980937028275 86.21571869231786 -86.79328224227838
v -18.937980937028275 -86.21571869231786 86.79328224227838
v -18.937980937028275 86.21571869231786 86.79328224227838
v -86.73509235566956 -86.21571869231786 -19.202726848354512
v -86.73509235566956 86.21571869231786 -19.202726848354512
v -23.164323026090777 -86.21571869231786 -85.76208429779422
v 85.83236681146079 -86.21571869231786 -22.90252763128749
v 85.83236681146079 86.21571869231786 -22.90252763128749
v -23.164323026090777 86.21571869231786 -85.76208429779422
v 23.164323026090777 -86.21571869231786 85.76208429779422
v 23.164323026090777 86.21571869231786 85.76208429779422
v -85.83236681146079 -86.21571869231786 22.90252763128749
v -85.83236681146079 86.21571869231786 22.90252763128749
v -62.91184757232374 -86.21571869231786 -62.72017537759082
v 62.91184757232385 -86.21571869231786 -62.72017537759082
v 62.91184757232385 86.21571869231786 -62.72017537759082
v -62.91184757232374 86.21571869231786 -62.72017537759082
v 62.91184757232374 -86.21571869231786 62.72017537759082
v 62.91184757232374 86.21571869231786 62.72017537759082
v -62.91184757232385 -86.21571869231786 62.72017537759082
v -62.91184757232385 86.21571869231786 62.72017537759082
# 24 vertices
vt 0.3390362587588999 0.9362670641652389
vt -0.07501065175138481 0.9362670641652389
vt -0.07501065175138481 1.0637329358347611
vt 0.3390362587588999 1.0637329358347611
vt 0.33880895451433424 0.9362670641652389
vt -0.0739764880352667 0.9362670641652389
vt -0.0739764880352667 1.0637329358347611
vt 0.33880895451433424 1.0637329358347611
vt 0.3390362587588999 0.9362670641652389
vt -0.07501065175138481 0.9362670641652389
vt -0.07501065175138481 1.0637329358347611
vt 0.3390362587588999 1.0637329358347611
vt 0.33880895451433424 0.9362670641652389
vt -0.0739764880352667 0.9362670641652389
vt -0.0739764880352667 1.0637329358347611
vt 0.33880895451433424 1.0637329358347611
vt 0.0739764880352667 1.3390362587589
vt 0.33880895451433424 0.9249893482486152
vt -0.0739764880352667 0.6609637412411
vt -0.33880895451433424 1.0750106517513849
vt -0.33880895451433424 0.9249893482486152
vt -0.0739764880352667 1.3390362587589
vt 0.33880895451433424 1.0750106517513849
vt 0.0739764880352667 0.6609637412411
vt 0.0904856368206671 0.9362670641652389
vt -0.3352826828572687 0.9362670641652389
vt -0.3352826828572687 1.0637329358347611
vt 0.0904856368206671 1.0637329358347611
vt 0.08946299855971676 0.9362670641652389
vt -0.33500814178825866 0.9362670641652389
vt -0.33500814178825866 1.0637329358347611
vt 0.08946299855971676 1.0637329358347611
vt 0.0904856368206671 0.9362670641652389
vt -0.3352826828572687 0.9362670641652389
vt -0.3352826828572687 1.0637329358347611
vt 0.0904856368206671 1.0637329358347611
vt 0.08946299855971676 0.9362670641652389
vt -0.33500814178825866 0.9362670641652389
vt -0.33500814178825866 1.0637329358347611
vt 0.08946299855971676 1.0637329358347611
vt -0.0904856368206671 1.3350081417882587
vt 0.3352826828572687 1.0894629985597168
vt 0.0904856368206671 0.6649918582117413
vt -0.3352826828572687 0.9105370014402833
vt -0.3352826828572687 1.0894629985597168
vt 0.0904856368206671 1.3350081417882587
vt 0.3352826828572687 0.9105370014402833
vt -0.0904856368206671 0.6649918582117413
vt 0.2457494045793896 0.9362670641652389
vt -0.24574940457939004 0.9362670641652389
vt -0.24574940457939004 1.0637329358347611
vt 0.2457494045793896 1.0637329358347611
vt 0.24500068506871414 0.9362670641652389
vt -0.24500068506871414 0.9362670641652389
vt -0.24500068506871414 1.0637329358347611
vt 0.24500068506871414 1.0637329358347611
vt 0.2457494045793896 0.9362670641652389
vt -0.24574940457939004 0.9362670641652389
vt -0.24574940457939004 1.0637329358347611
vt 0.2457494045793896 1.0637329358347611
vt 0.24500068506871414 0.9362670641652389
vt -0.24500068506871414 0.9362670641652389
vt -0.24500068506871414 1.0637329358347611
vt 0.24500068506871414 1.0637329358347611
vt -0.24574940457939004 1.245000685068714
vt 0.2457494045793896 1.245000685068714
vt 0.24574940457939004 0.7549993149312859
vt -0.2457494045793896 0.7549993149312859
vt -0.2457494045793896 1.245000685068714
vt 0.24574940457939004 1.245000685068714
vt 0.2457494045793896 0.7549993149312859
vt -0.24574940457939004 0.7549993149312859
# 72 uvs
vn 0.10119688406882339 -0.3333333333333333 -0.46041439256064026
vn 0.46041439256064015 -0.3333333333333333 0.10119688406882339
vn 0.46041439256064015 0.3333333333333333 0.10119688406882342
vn 0.10119688406882339 0.3333333333333333 -0.46041439256064026
vn -0.10119688406882339 -0.3333333333333333 0.46041439256064026
vn -0.10119688406882339 0.3333333333333333 0.46041439256064026
vn -0.46041439256064015 -0.3333333333333333 -0.10119688406882339
vn -0.46041439256064015 0.3333333333333333 -0.10119688406882338
vn -0.12222693327094286 -0.3333333333333333 -0.45528320747135265
vn 0.45528320747135265 -0.3333333333333333 -0.12222693327094279
vn 0.45528320747135265 0.3333333333333333 -0.12222693327094279
vn -0.12222693327094286 0.3333333333333333 -0.45528320747135265
vn 0.12222693327094286 -0.3333333333333333 0.45528320747135265
vn 0.12222693327094286 0.3333333333333333 0.45528320747135265
vn -0.45528320747135265 -0.3333333333333333 0.12222693327094279
vn -0.45528320747135265 0.3333333333333333 0.12222693327094279
vn -0.3333333333333333 -0.3333333333333333 -0.33333333333333365
vn 0.3333333333333333 -0.3333333333333333 -0.33333333333333304
vn 0.3333333333333333 0.3333333333333333 -0.33333333333333304
vn -0.3333333333333333 0.3333333333333333 -0.33333333333333365
vn 0.3333333333333333 -0.3333333333333333 0.33333333333333365
vn 0.3333333333333333 0.3333333333333333 0.33333333333333365
vn -0.3333333333333333 -0.3333333333333333 0.33333333333333304
vn -0.3333333333333333 0.3333333333333333 0.33333333333333304
# 24 normals
usemtl 808080
f 4/72/4 3/71/3 2/70/2 1/69/1 
f 3/72/3 6/71/6 5/70/5 2/69/2 
f 6/72/6 8/71/8 7/70/7 5/69/5 
f 8/72/8 4/71/4 1/70/1 7/69/7 
f 8/72/8 6/71/6 3/70/3 4/69/4 
f 1/72/1 2/71/2 5/70/5 7/69/7 
f 12/72/12 11/71/11 10/70/10 9/69/9 
f 11/72/11 14/71/14 13/70/13 10/69/10 
f 14/72/14 16/71/16 15/70/15 13/69/13 
f 16/72/16 12/71/12 9/70/9 15/69/15 
f 16/72/16 14/71/14 11/70/11 12/69/12 
f 9/72/9 10/71/10 13/70/13 15/69/15 
f 20/72/20 19/71/19 18/70/18 17/69/17 
f 19/72/19 22/71/22 21/70/21 18/69/18 
f 22/72/22 24/71/24 23/70/23 21/69/21 
f 24/72/24 20/71/20 17/70/17 23/69/23 
f 17/72/17 18/71/18 21/70/21 23/69/23 
f 24/72/24 22/71/22 19/70/19 20/69/20 
# 18 polygons